<mxfile host="Electron" modified="2024-06-21T11:21:51.205Z" agent="Mozilla/5.0 (Macintosh; Intel Mac OS X 10_15_7) AppleWebKit/537.36 (KHTML, like Gecko) draw.io/24.1.0 Chrome/120.0.6099.109 Electron/28.1.0 Safari/537.36" etag="mHafTcZgrfDFCrKDozKH" version="24.1.0" type="device">
  <diagram name="Page-1" id="DzVjf0Opx9yG1LEftdfK">
    <mxGraphModel dx="2585" dy="2178" grid="1" gridSize="10" guides="1" tooltips="1" connect="1" arrows="1" fold="1" page="1" pageScale="1" pageWidth="850" pageHeight="1100" math="0" shadow="0">
      <root>
        <mxCell id="0" />
        <mxCell id="1" parent="0" />
        <mxCell id="2eTKH-wp4Zf4tWn3sqF9-92" value="" style="rounded=0;whiteSpace=wrap;html=1;fillColor=#FFFFFF;" vertex="1" parent="1">
          <mxGeometry x="-45" y="-279" width="870" height="980" as="geometry" />
        </mxCell>
        <mxCell id="2eTKH-wp4Zf4tWn3sqF9-6" style="edgeStyle=orthogonalEdgeStyle;rounded=0;orthogonalLoop=1;jettySize=auto;html=1;exitX=0.5;exitY=0;exitDx=0;exitDy=0;strokeColor=#000000;" edge="1" parent="1" source="2eTKH-wp4Zf4tWn3sqF9-1" target="2eTKH-wp4Zf4tWn3sqF9-5">
          <mxGeometry relative="1" as="geometry" />
        </mxCell>
        <mxCell id="2eTKH-wp4Zf4tWn3sqF9-1" value="" style="ellipse;whiteSpace=wrap;html=1;aspect=fixed;strokeColor=#000000;fillColor=#333333;" vertex="1" parent="1">
          <mxGeometry x="190" y="200" width="50" height="50" as="geometry" />
        </mxCell>
        <mxCell id="2eTKH-wp4Zf4tWn3sqF9-33" style="edgeStyle=orthogonalEdgeStyle;rounded=0;orthogonalLoop=1;jettySize=auto;html=1;exitX=0.5;exitY=0;exitDx=0;exitDy=0;entryX=0.5;entryY=1;entryDx=0;entryDy=0;strokeColor=#000000;" edge="1" parent="1" source="2eTKH-wp4Zf4tWn3sqF9-5" target="2eTKH-wp4Zf4tWn3sqF9-31">
          <mxGeometry relative="1" as="geometry" />
        </mxCell>
        <mxCell id="2eTKH-wp4Zf4tWn3sqF9-5" value="" style="ellipse;whiteSpace=wrap;html=1;aspect=fixed;strokeColor=#000000;fillColor=#333333;" vertex="1" parent="1">
          <mxGeometry x="190" y="110" width="50" height="50" as="geometry" />
        </mxCell>
        <mxCell id="2eTKH-wp4Zf4tWn3sqF9-7" value="SoftMax Layer" style="text;html=1;align=center;verticalAlign=middle;whiteSpace=wrap;rounded=0;fontColor=#000000;" vertex="1" parent="1">
          <mxGeometry x="-40" y="120" width="120" height="30" as="geometry" />
        </mxCell>
        <mxCell id="2eTKH-wp4Zf4tWn3sqF9-23" style="edgeStyle=orthogonalEdgeStyle;rounded=0;orthogonalLoop=1;jettySize=auto;html=1;exitX=0.5;exitY=0;exitDx=0;exitDy=0;entryX=0.5;entryY=1;entryDx=0;entryDy=0;strokeColor=#000000;" edge="1" parent="1" source="2eTKH-wp4Zf4tWn3sqF9-13" target="2eTKH-wp4Zf4tWn3sqF9-1">
          <mxGeometry relative="1" as="geometry" />
        </mxCell>
        <mxCell id="2eTKH-wp4Zf4tWn3sqF9-13" value="" style="rounded=1;whiteSpace=wrap;html=1;strokeColor=#000000;fillColor=#333333;" vertex="1" parent="1">
          <mxGeometry x="155" y="280" width="120" height="60" as="geometry" />
        </mxCell>
        <mxCell id="2eTKH-wp4Zf4tWn3sqF9-24" style="edgeStyle=orthogonalEdgeStyle;rounded=0;orthogonalLoop=1;jettySize=auto;html=1;exitX=0.25;exitY=0;exitDx=0;exitDy=0;entryX=0.25;entryY=1;entryDx=0;entryDy=0;strokeColor=#000000;" edge="1" parent="1" source="2eTKH-wp4Zf4tWn3sqF9-14" target="2eTKH-wp4Zf4tWn3sqF9-13">
          <mxGeometry relative="1" as="geometry" />
        </mxCell>
        <mxCell id="2eTKH-wp4Zf4tWn3sqF9-25" style="edgeStyle=orthogonalEdgeStyle;rounded=0;orthogonalLoop=1;jettySize=auto;html=1;exitX=0.5;exitY=0;exitDx=0;exitDy=0;entryX=0.5;entryY=1;entryDx=0;entryDy=0;strokeColor=#000000;" edge="1" parent="1" source="2eTKH-wp4Zf4tWn3sqF9-14" target="2eTKH-wp4Zf4tWn3sqF9-13">
          <mxGeometry relative="1" as="geometry" />
        </mxCell>
        <mxCell id="2eTKH-wp4Zf4tWn3sqF9-26" style="edgeStyle=orthogonalEdgeStyle;rounded=0;orthogonalLoop=1;jettySize=auto;html=1;exitX=0.75;exitY=0;exitDx=0;exitDy=0;entryX=0.75;entryY=1;entryDx=0;entryDy=0;strokeColor=#000000;" edge="1" parent="1" source="2eTKH-wp4Zf4tWn3sqF9-14" target="2eTKH-wp4Zf4tWn3sqF9-13">
          <mxGeometry relative="1" as="geometry" />
        </mxCell>
        <mxCell id="2eTKH-wp4Zf4tWn3sqF9-14" value="" style="rounded=1;whiteSpace=wrap;html=1;strokeColor=#000000;fillColor=#333333;" vertex="1" parent="1">
          <mxGeometry x="155" y="370" width="120" height="60" as="geometry" />
        </mxCell>
        <mxCell id="2eTKH-wp4Zf4tWn3sqF9-35" style="edgeStyle=orthogonalEdgeStyle;rounded=0;orthogonalLoop=1;jettySize=auto;html=1;exitX=0.5;exitY=0;exitDx=0;exitDy=0;exitPerimeter=0;entryX=0.5;entryY=1;entryDx=0;entryDy=0;strokeColor=#000000;" edge="1" parent="1" source="2eTKH-wp4Zf4tWn3sqF9-16" target="2eTKH-wp4Zf4tWn3sqF9-14">
          <mxGeometry relative="1" as="geometry" />
        </mxCell>
        <mxCell id="2eTKH-wp4Zf4tWn3sqF9-16" value="" style="shape=note;whiteSpace=wrap;html=1;backgroundOutline=1;darkOpacity=0.05;strokeColor=#000000;fillColor=#333333;" vertex="1" parent="1">
          <mxGeometry x="175" y="470" width="80" height="100" as="geometry" />
        </mxCell>
        <mxCell id="2eTKH-wp4Zf4tWn3sqF9-17" value="" style="shape=note;whiteSpace=wrap;html=1;backgroundOutline=1;darkOpacity=0.05;strokeColor=#000000;fillColor=#333333;" vertex="1" parent="1">
          <mxGeometry x="185" y="480" width="80" height="100" as="geometry" />
        </mxCell>
        <mxCell id="2eTKH-wp4Zf4tWn3sqF9-18" value="" style="shape=note;whiteSpace=wrap;html=1;backgroundOutline=1;darkOpacity=0.05;strokeColor=#000000;fillColor=#333333;" vertex="1" parent="1">
          <mxGeometry x="195" y="490" width="80" height="100" as="geometry" />
        </mxCell>
        <mxCell id="2eTKH-wp4Zf4tWn3sqF9-19" value="Base Model Layers" style="text;html=1;align=center;verticalAlign=middle;whiteSpace=wrap;rounded=0;fontColor=#000000;" vertex="1" parent="1">
          <mxGeometry x="-40" y="340" width="120" height="30" as="geometry" />
        </mxCell>
        <mxCell id="2eTKH-wp4Zf4tWn3sqF9-20" value="" style="shape=curlyBracket;whiteSpace=wrap;html=1;rounded=1;labelPosition=left;verticalLabelPosition=middle;align=right;verticalAlign=middle;strokeColor=#000000;" vertex="1" parent="1">
          <mxGeometry x="100" y="280" width="20" height="150" as="geometry" />
        </mxCell>
        <mxCell id="2eTKH-wp4Zf4tWn3sqF9-22" value="Log Odds Output Layer" style="text;html=1;align=center;verticalAlign=middle;whiteSpace=wrap;rounded=0;fontColor=#000000;" vertex="1" parent="1">
          <mxGeometry x="-40" y="210" width="120" height="30" as="geometry" />
        </mxCell>
        <mxCell id="2eTKH-wp4Zf4tWn3sqF9-27" value="Batched Input Features" style="text;html=1;align=center;verticalAlign=middle;whiteSpace=wrap;rounded=0;fontColor=#000000;" vertex="1" parent="1">
          <mxGeometry x="-40" y="485" width="120" height="30" as="geometry" />
        </mxCell>
        <mxCell id="2eTKH-wp4Zf4tWn3sqF9-29" value="" style="rounded=0;whiteSpace=wrap;html=1;strokeColor=#000000;fillColor=#333333;" vertex="1" parent="1">
          <mxGeometry x="165" y="-20" width="60" height="60" as="geometry" />
        </mxCell>
        <mxCell id="2eTKH-wp4Zf4tWn3sqF9-30" value="" style="rounded=0;whiteSpace=wrap;html=1;strokeColor=#000000;fillColor=#333333;" vertex="1" parent="1">
          <mxGeometry x="175" y="-10" width="60" height="60" as="geometry" />
        </mxCell>
        <mxCell id="2eTKH-wp4Zf4tWn3sqF9-31" value="" style="rounded=0;whiteSpace=wrap;html=1;strokeColor=#000000;fillColor=#333333;" vertex="1" parent="1">
          <mxGeometry x="185" width="60" height="60" as="geometry" />
        </mxCell>
        <mxCell id="2eTKH-wp4Zf4tWn3sqF9-32" value="Predicted Probabilities" style="text;html=1;align=center;verticalAlign=middle;whiteSpace=wrap;rounded=0;fontColor=#000000;" vertex="1" parent="1">
          <mxGeometry x="-40" y="5" width="120" height="30" as="geometry" />
        </mxCell>
        <mxCell id="2eTKH-wp4Zf4tWn3sqF9-36" value="" style="shape=note;whiteSpace=wrap;html=1;backgroundOutline=1;darkOpacity=0.05;strokeColor=#000000;fillColor=#333333;" vertex="1" parent="1">
          <mxGeometry x="155" y="-260" width="80" height="100" as="geometry" />
        </mxCell>
        <mxCell id="2eTKH-wp4Zf4tWn3sqF9-37" value="" style="shape=note;whiteSpace=wrap;html=1;backgroundOutline=1;darkOpacity=0.05;strokeColor=#000000;fillColor=#333333;" vertex="1" parent="1">
          <mxGeometry x="165" y="-250" width="80" height="100" as="geometry" />
        </mxCell>
        <mxCell id="2eTKH-wp4Zf4tWn3sqF9-38" value="" style="shape=note;whiteSpace=wrap;html=1;backgroundOutline=1;darkOpacity=0.05;strokeColor=#000000;fillColor=#333333;" vertex="1" parent="1">
          <mxGeometry x="175" y="-240" width="80" height="100" as="geometry" />
        </mxCell>
        <mxCell id="2eTKH-wp4Zf4tWn3sqF9-39" value="" style="shape=flexArrow;endArrow=classic;startArrow=classic;html=1;rounded=0;strokeColor=#000000;" edge="1" parent="1">
          <mxGeometry width="100" height="100" relative="1" as="geometry">
            <mxPoint x="204.38" y="-40" as="sourcePoint" />
            <mxPoint x="204.38" y="-120" as="targetPoint" />
          </mxGeometry>
        </mxCell>
        <mxCell id="2eTKH-wp4Zf4tWn3sqF9-40" style="edgeStyle=orthogonalEdgeStyle;rounded=0;orthogonalLoop=1;jettySize=auto;html=1;exitX=0.5;exitY=0;exitDx=0;exitDy=0;strokeColor=#000000;" edge="1" parent="1" source="2eTKH-wp4Zf4tWn3sqF9-41" target="2eTKH-wp4Zf4tWn3sqF9-43">
          <mxGeometry relative="1" as="geometry" />
        </mxCell>
        <mxCell id="2eTKH-wp4Zf4tWn3sqF9-41" value="" style="ellipse;whiteSpace=wrap;html=1;aspect=fixed;strokeColor=#000000;fillColor=#333333;" vertex="1" parent="1">
          <mxGeometry x="355" y="200" width="50" height="50" as="geometry" />
        </mxCell>
        <mxCell id="2eTKH-wp4Zf4tWn3sqF9-42" style="edgeStyle=orthogonalEdgeStyle;rounded=0;orthogonalLoop=1;jettySize=auto;html=1;exitX=0.5;exitY=0;exitDx=0;exitDy=0;entryX=0.5;entryY=1;entryDx=0;entryDy=0;strokeColor=#000000;" edge="1" parent="1" source="2eTKH-wp4Zf4tWn3sqF9-43" target="2eTKH-wp4Zf4tWn3sqF9-56">
          <mxGeometry relative="1" as="geometry" />
        </mxCell>
        <mxCell id="2eTKH-wp4Zf4tWn3sqF9-43" value="" style="ellipse;whiteSpace=wrap;html=1;aspect=fixed;strokeColor=#000000;fillColor=#333333;" vertex="1" parent="1">
          <mxGeometry x="355" y="110" width="50" height="50" as="geometry" />
        </mxCell>
        <mxCell id="2eTKH-wp4Zf4tWn3sqF9-44" style="edgeStyle=orthogonalEdgeStyle;rounded=0;orthogonalLoop=1;jettySize=auto;html=1;exitX=0.5;exitY=0;exitDx=0;exitDy=0;entryX=0.5;entryY=1;entryDx=0;entryDy=0;strokeColor=#000000;" edge="1" parent="1" source="2eTKH-wp4Zf4tWn3sqF9-45" target="2eTKH-wp4Zf4tWn3sqF9-41">
          <mxGeometry relative="1" as="geometry" />
        </mxCell>
        <mxCell id="2eTKH-wp4Zf4tWn3sqF9-45" value="" style="rounded=1;whiteSpace=wrap;html=1;strokeColor=#000000;fillColor=#333333;" vertex="1" parent="1">
          <mxGeometry x="320" y="280" width="120" height="60" as="geometry" />
        </mxCell>
        <mxCell id="2eTKH-wp4Zf4tWn3sqF9-46" style="edgeStyle=orthogonalEdgeStyle;rounded=0;orthogonalLoop=1;jettySize=auto;html=1;exitX=0.25;exitY=0;exitDx=0;exitDy=0;entryX=0.25;entryY=1;entryDx=0;entryDy=0;strokeColor=#000000;" edge="1" parent="1" source="2eTKH-wp4Zf4tWn3sqF9-49" target="2eTKH-wp4Zf4tWn3sqF9-45">
          <mxGeometry relative="1" as="geometry" />
        </mxCell>
        <mxCell id="2eTKH-wp4Zf4tWn3sqF9-47" style="edgeStyle=orthogonalEdgeStyle;rounded=0;orthogonalLoop=1;jettySize=auto;html=1;exitX=0.5;exitY=0;exitDx=0;exitDy=0;entryX=0.5;entryY=1;entryDx=0;entryDy=0;strokeColor=#000000;" edge="1" parent="1" source="2eTKH-wp4Zf4tWn3sqF9-49" target="2eTKH-wp4Zf4tWn3sqF9-45">
          <mxGeometry relative="1" as="geometry" />
        </mxCell>
        <mxCell id="2eTKH-wp4Zf4tWn3sqF9-48" style="edgeStyle=orthogonalEdgeStyle;rounded=0;orthogonalLoop=1;jettySize=auto;html=1;exitX=0.75;exitY=0;exitDx=0;exitDy=0;entryX=0.75;entryY=1;entryDx=0;entryDy=0;strokeColor=#000000;" edge="1" parent="1" source="2eTKH-wp4Zf4tWn3sqF9-49" target="2eTKH-wp4Zf4tWn3sqF9-45">
          <mxGeometry relative="1" as="geometry" />
        </mxCell>
        <mxCell id="2eTKH-wp4Zf4tWn3sqF9-49" value="" style="rounded=1;whiteSpace=wrap;html=1;strokeColor=#000000;fillColor=#333333;" vertex="1" parent="1">
          <mxGeometry x="320" y="370" width="120" height="60" as="geometry" />
        </mxCell>
        <mxCell id="2eTKH-wp4Zf4tWn3sqF9-50" style="edgeStyle=orthogonalEdgeStyle;rounded=0;orthogonalLoop=1;jettySize=auto;html=1;exitX=0.5;exitY=0;exitDx=0;exitDy=0;exitPerimeter=0;entryX=0.5;entryY=1;entryDx=0;entryDy=0;strokeColor=#000000;" edge="1" parent="1" source="2eTKH-wp4Zf4tWn3sqF9-51" target="2eTKH-wp4Zf4tWn3sqF9-49">
          <mxGeometry relative="1" as="geometry" />
        </mxCell>
        <mxCell id="2eTKH-wp4Zf4tWn3sqF9-51" value="" style="shape=note;whiteSpace=wrap;html=1;backgroundOutline=1;darkOpacity=0.05;strokeColor=#000000;fillColor=#333333;" vertex="1" parent="1">
          <mxGeometry x="340" y="470" width="80" height="100" as="geometry" />
        </mxCell>
        <mxCell id="2eTKH-wp4Zf4tWn3sqF9-52" value="" style="shape=note;whiteSpace=wrap;html=1;backgroundOutline=1;darkOpacity=0.05;strokeColor=#000000;fillColor=#333333;" vertex="1" parent="1">
          <mxGeometry x="350" y="480" width="80" height="100" as="geometry" />
        </mxCell>
        <mxCell id="2eTKH-wp4Zf4tWn3sqF9-53" value="" style="shape=note;whiteSpace=wrap;html=1;backgroundOutline=1;darkOpacity=0.05;strokeColor=#000000;fillColor=#333333;" vertex="1" parent="1">
          <mxGeometry x="360" y="490" width="80" height="100" as="geometry" />
        </mxCell>
        <mxCell id="2eTKH-wp4Zf4tWn3sqF9-54" value="" style="rounded=0;whiteSpace=wrap;html=1;strokeColor=#000000;fillColor=#333333;" vertex="1" parent="1">
          <mxGeometry x="330" y="-20" width="60" height="60" as="geometry" />
        </mxCell>
        <mxCell id="2eTKH-wp4Zf4tWn3sqF9-55" value="" style="rounded=0;whiteSpace=wrap;html=1;strokeColor=#000000;fillColor=#333333;" vertex="1" parent="1">
          <mxGeometry x="340" y="-10" width="60" height="60" as="geometry" />
        </mxCell>
        <mxCell id="2eTKH-wp4Zf4tWn3sqF9-56" value="" style="rounded=0;whiteSpace=wrap;html=1;strokeColor=#000000;fillColor=#333333;" vertex="1" parent="1">
          <mxGeometry x="350" width="60" height="60" as="geometry" />
        </mxCell>
        <mxCell id="2eTKH-wp4Zf4tWn3sqF9-57" value="" style="shape=note;whiteSpace=wrap;html=1;backgroundOutline=1;darkOpacity=0.05;strokeColor=#000000;fillColor=#333333;" vertex="1" parent="1">
          <mxGeometry x="320" y="-260" width="80" height="100" as="geometry" />
        </mxCell>
        <mxCell id="2eTKH-wp4Zf4tWn3sqF9-58" value="" style="shape=note;whiteSpace=wrap;html=1;backgroundOutline=1;darkOpacity=0.05;strokeColor=#000000;fillColor=#333333;" vertex="1" parent="1">
          <mxGeometry x="330" y="-250" width="80" height="100" as="geometry" />
        </mxCell>
        <mxCell id="2eTKH-wp4Zf4tWn3sqF9-59" value="" style="shape=note;whiteSpace=wrap;html=1;backgroundOutline=1;darkOpacity=0.05;strokeColor=#000000;fillColor=#333333;" vertex="1" parent="1">
          <mxGeometry x="340" y="-240" width="80" height="100" as="geometry" />
        </mxCell>
        <mxCell id="2eTKH-wp4Zf4tWn3sqF9-60" value="" style="shape=flexArrow;endArrow=classic;startArrow=classic;html=1;rounded=0;strokeColor=#000000;" edge="1" parent="1">
          <mxGeometry width="100" height="100" relative="1" as="geometry">
            <mxPoint x="369.38" y="-40" as="sourcePoint" />
            <mxPoint x="369.38" y="-120" as="targetPoint" />
          </mxGeometry>
        </mxCell>
        <mxCell id="2eTKH-wp4Zf4tWn3sqF9-61" style="edgeStyle=orthogonalEdgeStyle;rounded=0;orthogonalLoop=1;jettySize=auto;html=1;exitX=0.5;exitY=0;exitDx=0;exitDy=0;strokeColor=#000000;" edge="1" parent="1" source="2eTKH-wp4Zf4tWn3sqF9-62" target="2eTKH-wp4Zf4tWn3sqF9-64">
          <mxGeometry relative="1" as="geometry" />
        </mxCell>
        <mxCell id="2eTKH-wp4Zf4tWn3sqF9-62" value="" style="ellipse;whiteSpace=wrap;html=1;aspect=fixed;strokeColor=#000000;fillColor=#333333;" vertex="1" parent="1">
          <mxGeometry x="685" y="200" width="50" height="50" as="geometry" />
        </mxCell>
        <mxCell id="2eTKH-wp4Zf4tWn3sqF9-63" style="edgeStyle=orthogonalEdgeStyle;rounded=0;orthogonalLoop=1;jettySize=auto;html=1;exitX=0.5;exitY=0;exitDx=0;exitDy=0;entryX=0.5;entryY=1;entryDx=0;entryDy=0;strokeColor=#000000;" edge="1" parent="1" source="2eTKH-wp4Zf4tWn3sqF9-64" target="2eTKH-wp4Zf4tWn3sqF9-77">
          <mxGeometry relative="1" as="geometry" />
        </mxCell>
        <mxCell id="2eTKH-wp4Zf4tWn3sqF9-64" value="" style="ellipse;whiteSpace=wrap;html=1;aspect=fixed;strokeColor=#000000;fillColor=#333333;" vertex="1" parent="1">
          <mxGeometry x="685" y="110" width="50" height="50" as="geometry" />
        </mxCell>
        <mxCell id="2eTKH-wp4Zf4tWn3sqF9-65" style="edgeStyle=orthogonalEdgeStyle;rounded=0;orthogonalLoop=1;jettySize=auto;html=1;exitX=0.5;exitY=0;exitDx=0;exitDy=0;entryX=0.5;entryY=1;entryDx=0;entryDy=0;strokeColor=#000000;" edge="1" parent="1" source="2eTKH-wp4Zf4tWn3sqF9-66" target="2eTKH-wp4Zf4tWn3sqF9-62">
          <mxGeometry relative="1" as="geometry" />
        </mxCell>
        <mxCell id="2eTKH-wp4Zf4tWn3sqF9-66" value="" style="rounded=1;whiteSpace=wrap;html=1;strokeColor=#000000;fillColor=#333333;" vertex="1" parent="1">
          <mxGeometry x="650" y="280" width="120" height="60" as="geometry" />
        </mxCell>
        <mxCell id="2eTKH-wp4Zf4tWn3sqF9-67" style="edgeStyle=orthogonalEdgeStyle;rounded=0;orthogonalLoop=1;jettySize=auto;html=1;exitX=0.25;exitY=0;exitDx=0;exitDy=0;entryX=0.25;entryY=1;entryDx=0;entryDy=0;strokeColor=#000000;" edge="1" parent="1" source="2eTKH-wp4Zf4tWn3sqF9-70" target="2eTKH-wp4Zf4tWn3sqF9-66">
          <mxGeometry relative="1" as="geometry" />
        </mxCell>
        <mxCell id="2eTKH-wp4Zf4tWn3sqF9-68" style="edgeStyle=orthogonalEdgeStyle;rounded=0;orthogonalLoop=1;jettySize=auto;html=1;exitX=0.5;exitY=0;exitDx=0;exitDy=0;entryX=0.5;entryY=1;entryDx=0;entryDy=0;strokeColor=#000000;" edge="1" parent="1" source="2eTKH-wp4Zf4tWn3sqF9-70" target="2eTKH-wp4Zf4tWn3sqF9-66">
          <mxGeometry relative="1" as="geometry" />
        </mxCell>
        <mxCell id="2eTKH-wp4Zf4tWn3sqF9-69" style="edgeStyle=orthogonalEdgeStyle;rounded=0;orthogonalLoop=1;jettySize=auto;html=1;exitX=0.75;exitY=0;exitDx=0;exitDy=0;entryX=0.75;entryY=1;entryDx=0;entryDy=0;strokeColor=#000000;" edge="1" parent="1" source="2eTKH-wp4Zf4tWn3sqF9-70" target="2eTKH-wp4Zf4tWn3sqF9-66">
          <mxGeometry relative="1" as="geometry" />
        </mxCell>
        <mxCell id="2eTKH-wp4Zf4tWn3sqF9-70" value="" style="rounded=1;whiteSpace=wrap;html=1;strokeColor=#000000;fillColor=#333333;" vertex="1" parent="1">
          <mxGeometry x="650" y="370" width="120" height="60" as="geometry" />
        </mxCell>
        <mxCell id="2eTKH-wp4Zf4tWn3sqF9-71" style="edgeStyle=orthogonalEdgeStyle;rounded=0;orthogonalLoop=1;jettySize=auto;html=1;exitX=0.5;exitY=0;exitDx=0;exitDy=0;exitPerimeter=0;entryX=0.5;entryY=1;entryDx=0;entryDy=0;strokeColor=#000000;" edge="1" parent="1" source="2eTKH-wp4Zf4tWn3sqF9-72" target="2eTKH-wp4Zf4tWn3sqF9-70">
          <mxGeometry relative="1" as="geometry" />
        </mxCell>
        <mxCell id="2eTKH-wp4Zf4tWn3sqF9-72" value="" style="shape=note;whiteSpace=wrap;html=1;backgroundOutline=1;darkOpacity=0.05;strokeColor=#000000;fillColor=#333333;" vertex="1" parent="1">
          <mxGeometry x="670" y="470" width="80" height="100" as="geometry" />
        </mxCell>
        <mxCell id="2eTKH-wp4Zf4tWn3sqF9-73" value="" style="shape=note;whiteSpace=wrap;html=1;backgroundOutline=1;darkOpacity=0.05;strokeColor=#000000;fillColor=#333333;" vertex="1" parent="1">
          <mxGeometry x="680" y="480" width="80" height="100" as="geometry" />
        </mxCell>
        <mxCell id="2eTKH-wp4Zf4tWn3sqF9-74" value="" style="shape=note;whiteSpace=wrap;html=1;backgroundOutline=1;darkOpacity=0.05;strokeColor=#000000;fillColor=#333333;" vertex="1" parent="1">
          <mxGeometry x="690" y="490" width="80" height="100" as="geometry" />
        </mxCell>
        <mxCell id="2eTKH-wp4Zf4tWn3sqF9-75" value="" style="rounded=0;whiteSpace=wrap;html=1;strokeColor=#000000;fillColor=#333333;" vertex="1" parent="1">
          <mxGeometry x="660" y="-20" width="60" height="60" as="geometry" />
        </mxCell>
        <mxCell id="2eTKH-wp4Zf4tWn3sqF9-76" value="" style="rounded=0;whiteSpace=wrap;html=1;strokeColor=#000000;fillColor=#333333;" vertex="1" parent="1">
          <mxGeometry x="670" y="-10" width="60" height="60" as="geometry" />
        </mxCell>
        <mxCell id="2eTKH-wp4Zf4tWn3sqF9-77" value="" style="rounded=0;whiteSpace=wrap;html=1;strokeColor=#000000;fillColor=#333333;" vertex="1" parent="1">
          <mxGeometry x="680" width="60" height="60" as="geometry" />
        </mxCell>
        <mxCell id="2eTKH-wp4Zf4tWn3sqF9-78" value="" style="shape=note;whiteSpace=wrap;html=1;backgroundOutline=1;darkOpacity=0.05;strokeColor=#000000;fillColor=#333333;" vertex="1" parent="1">
          <mxGeometry x="650" y="-260" width="80" height="100" as="geometry" />
        </mxCell>
        <mxCell id="2eTKH-wp4Zf4tWn3sqF9-79" value="" style="shape=note;whiteSpace=wrap;html=1;backgroundOutline=1;darkOpacity=0.05;strokeColor=#000000;fillColor=#333333;" vertex="1" parent="1">
          <mxGeometry x="660" y="-250" width="80" height="100" as="geometry" />
        </mxCell>
        <mxCell id="2eTKH-wp4Zf4tWn3sqF9-80" value="" style="shape=note;whiteSpace=wrap;html=1;backgroundOutline=1;darkOpacity=0.05;strokeColor=#000000;fillColor=#333333;" vertex="1" parent="1">
          <mxGeometry x="670" y="-240" width="80" height="100" as="geometry" />
        </mxCell>
        <mxCell id="2eTKH-wp4Zf4tWn3sqF9-81" value="" style="shape=flexArrow;endArrow=classic;startArrow=classic;html=1;rounded=0;strokeColor=#000000;" edge="1" parent="1">
          <mxGeometry width="100" height="100" relative="1" as="geometry">
            <mxPoint x="699.38" y="-40" as="sourcePoint" />
            <mxPoint x="699.38" y="-120" as="targetPoint" />
          </mxGeometry>
        </mxCell>
        <mxCell id="2eTKH-wp4Zf4tWn3sqF9-82" value="" style="ellipse;whiteSpace=wrap;html=1;aspect=fixed;strokeColor=#000000;fillColor=#333333;" vertex="1" parent="1">
          <mxGeometry x="510" y="140" width="10" height="10" as="geometry" />
        </mxCell>
        <mxCell id="2eTKH-wp4Zf4tWn3sqF9-83" value="" style="ellipse;whiteSpace=wrap;html=1;aspect=fixed;strokeColor=#000000;fillColor=#333333;" vertex="1" parent="1">
          <mxGeometry x="550" y="140" width="10" height="10" as="geometry" />
        </mxCell>
        <mxCell id="2eTKH-wp4Zf4tWn3sqF9-84" value="" style="ellipse;whiteSpace=wrap;html=1;aspect=fixed;strokeColor=#000000;fillColor=#333333;" vertex="1" parent="1">
          <mxGeometry x="590" y="140" width="10" height="10" as="geometry" />
        </mxCell>
        <mxCell id="2eTKH-wp4Zf4tWn3sqF9-85" value="" style="shape=curlyBracket;whiteSpace=wrap;html=1;rounded=1;labelPosition=left;verticalLabelPosition=middle;align=right;verticalAlign=middle;rotation=-90;strokeColor=#000000;" vertex="1" parent="1">
          <mxGeometry x="205" y="550" width="20" height="150" as="geometry" />
        </mxCell>
        <mxCell id="2eTKH-wp4Zf4tWn3sqF9-86" value="" style="shape=curlyBracket;whiteSpace=wrap;html=1;rounded=1;labelPosition=left;verticalLabelPosition=middle;align=right;verticalAlign=middle;rotation=-90;strokeColor=#000000;" vertex="1" parent="1">
          <mxGeometry x="385" y="550" width="20" height="150" as="geometry" />
        </mxCell>
        <mxCell id="2eTKH-wp4Zf4tWn3sqF9-87" value="" style="shape=curlyBracket;whiteSpace=wrap;html=1;rounded=1;labelPosition=left;verticalLabelPosition=middle;align=right;verticalAlign=middle;rotation=-90;strokeColor=#000000;" vertex="1" parent="1">
          <mxGeometry x="710" y="550" width="20" height="150" as="geometry" />
        </mxCell>
        <mxCell id="2eTKH-wp4Zf4tWn3sqF9-88" value="Choice 1" style="text;html=1;align=center;verticalAlign=middle;whiteSpace=wrap;rounded=0;fontColor=#000000;" vertex="1" parent="1">
          <mxGeometry x="155" y="660" width="120" height="30" as="geometry" />
        </mxCell>
        <mxCell id="2eTKH-wp4Zf4tWn3sqF9-89" value="Choice 2&lt;span style=&quot;font-family: monospace; font-size: 0px; text-align: start; text-wrap: nowrap;&quot;&gt;%3CmxGraphModel%3E%3Croot%3E%3CmxCell%20id%3D%220%22%2F%3E%3CmxCell%20id%3D%221%22%20parent%3D%220%22%2F%3E%3CmxCell%20id%3D%222%22%20value%3D%22Choice%201%22%20style%3D%22text%3Bhtml%3D1%3Balign%3Dcenter%3BverticalAlign%3Dmiddle%3BwhiteSpace%3Dwrap%3Brounded%3D0%3B%22%20vertex%3D%221%22%20parent%3D%221%22%3E%3CmxGeometry%20x%3D%22155%22%20y%3D%22660%22%20width%3D%22120%22%20height%3D%2230%22%20as%3D%22geometry%22%2F%3E%3C%2FmxCell%3E%3C%2Froot%3E%3C%2FmxGraphModel%3E&lt;/span&gt;" style="text;html=1;align=center;verticalAlign=middle;whiteSpace=wrap;rounded=0;fontColor=#000000;" vertex="1" parent="1">
          <mxGeometry x="330" y="660" width="120" height="30" as="geometry" />
        </mxCell>
        <mxCell id="2eTKH-wp4Zf4tWn3sqF9-90" value="Choice N&lt;span style=&quot;font-family: monospace; font-size: 0px; text-align: start; text-wrap: nowrap;&quot;&gt;%3CmxGraphModel%3E%3Croot%3E%3CmxCell%20id%3D%220%22%2F%3E%3CmxCell%20id%3D%221%22%20parent%3D%220%22%2F%3E%3CmxCell%20id%3D%222%22%20value%3D%22Choice%201%22%20style%3D%22text%3Bhtml%3D1%3Balign%3Dcenter%3BverticalAlign%3Dmiddle%3BwhiteSpace%3Dwrap%3Brounded%3D0%3B%22%20vertex%3D%221%22%20parent%3D%221%22%3E%3CmxGeometry%20x%3D%22155%22%20y%3D%22660%22%20width%3D%22120%22%20height%3D%2230%22%20as%3D%22geometry%22%2F%3E%3C%2FmxCell%3E%3C%2Froot%3E%3C%2FmxGraphModel%3E&lt;/span&gt;" style="text;html=1;align=center;verticalAlign=middle;whiteSpace=wrap;rounded=0;fontColor=#000000;" vertex="1" parent="1">
          <mxGeometry x="660" y="660" width="120" height="30" as="geometry" />
        </mxCell>
        <mxCell id="2eTKH-wp4Zf4tWn3sqF9-91" value="Categorical Cross Entropy" style="text;html=1;align=center;verticalAlign=middle;whiteSpace=wrap;rounded=0;fontColor=#000000;" vertex="1" parent="1">
          <mxGeometry x="-40" y="-90" width="120" height="30" as="geometry" />
        </mxCell>
        <mxCell id="2eTKH-wp4Zf4tWn3sqF9-93" value="Observed&amp;nbsp;&lt;div&gt;Selections&lt;/div&gt;" style="text;html=1;align=center;verticalAlign=middle;whiteSpace=wrap;rounded=0;fontColor=#000000;" vertex="1" parent="1">
          <mxGeometry x="-40" y="-215" width="120" height="30" as="geometry" />
        </mxCell>
      </root>
    </mxGraphModel>
  </diagram>
</mxfile>
